<svg xmlns="http://www.w3.org/2000/svg" width="730.24" height="275.1" viewBox="0 0 730.24 275.1" font-family="Victor Mono" font-size="16px"><style>@font-face{font-family:"Victor Mono";src:url("/studio/VictorMono.ttf") format("truetype");}</style>
<path class="omp-window-header" fill="#343434" d="M 4,0 H 726.24 A 4,4 0 0 1 730.24,4 V 26.67 H 0 V 4 A 4,4 0 0 1 4,0 Z"/>
<path class="omp-window-content" fill="#1e1e1e" d="M 0,26.67 H 730.24 V 271.1 A 4,4 0 0 1 726.24,275.1 H 4 A 4,4 0 0 1 0,271.1 Z"/>
<rect class="omp-window" x="0.5" y="0.5" width="729.24" height="274.1" rx="4" fill="none" stroke="#404040" stroke-width="1"/>
<text xml:space="preserve" class="omp-window-control" x="652.91" y="18.47" font-size="14.67px" fill="#cfcfcf" text-anchor="middle">−</text>
<text xml:space="preserve" class="omp-window-control" x="683.57" y="18.47" font-size="14.67px" fill="#cfcfcf" text-anchor="middle">▢</text>
<text xml:space="preserve" class="omp-window-control" x="714.24" y="18.47" font-size="14.67px" fill="#cfcfcf" text-anchor="middle">×</text>
<text xml:space="preserve" x="16" y="90.01" textLength="26.18" lengthAdjust="spacingAndGlyphs" fill="#2cb5e9"> ═</text>
<rect x="42.18" y="72.44" width="8.73" height="22.78" fill="#39b54a"/>
<text xml:space="preserve" x="42.18" y="90.01" textLength="8.73" lengthAdjust="spacingAndGlyphs" fill="#39b54a"></text>
<rect x="50.91" y="72.44" width="61.1" height="22.78" fill="#39b54a"/>
<text xml:space="preserve" x="50.91" y="90.01" textLength="61.1" lengthAdjust="spacingAndGlyphs" fill="#010101">  zsh </text>
<rect x="112.01" y="72.44" width="8.73" height="22.78" fill="#762671"/>
<text xml:space="preserve" x="112.01" y="90.01" textLength="8.73" lengthAdjust="spacingAndGlyphs" fill="#39b54a"></text>
<rect x="120.74" y="72.44" width="192.02" height="22.78" fill="#762671"/>
<text xml:space="preserve" x="120.74" y="90.01" textLength="192.02" lengthAdjust="spacingAndGlyphs" fill="#010101"> alice@contoso-devbox </text>
<rect x="312.75" y="72.44" width="8.73" height="22.78" fill="#ff0000"/>
<text xml:space="preserve" x="312.75" y="90.01" textLength="8.73" lengthAdjust="spacingAndGlyphs" fill="#762671"></text>
<rect x="321.48" y="72.44" width="87.28" height="22.78" fill="#ff0000"/>
<text xml:space="preserve" x="321.48" y="90.01" textLength="87.28" lengthAdjust="spacingAndGlyphs" fill="#010101"> 󰚲 18.2.7 </text>
<rect x="408.76" y="72.44" width="8.73" height="22.78" fill="#762671"/>
<text xml:space="preserve" x="408.76" y="90.01" textLength="8.73" lengthAdjust="spacingAndGlyphs" fill="#ff0000"></text>
<rect x="417.49" y="72.44" width="148.38" height="22.78" fill="#762671"/>
<text xml:space="preserve" x="417.49" y="90.01" textLength="148.38" lengthAdjust="spacingAndGlyphs" fill="#cccccc"> α 2.0.0-beta.23 </text>
<rect x="565.86" y="72.44" width="8.73" height="22.78" fill="#ffc706"/>
<text xml:space="preserve" x="565.86" y="90.01" textLength="8.73" lengthAdjust="spacingAndGlyphs" fill="#762671"></text>
<rect x="574.59" y="72.44" width="139.65" height="22.78" fill="#ffc706"/>
<text xml:space="preserve" x="574.59" y="90.01" textLength="139.65" lengthAdjust="spacingAndGlyphs" fill="#010101">  anycompany-pr</text>
<rect x="16" y="99.5" width="113.46" height="22.78" fill="#ffc706"/>
<text xml:space="preserve" x="16" y="117.07" textLength="113.46" lengthAdjust="spacingAndGlyphs" fill="#010101">od@us-east-1 </text>
<rect x="129.46" y="99.5" width="8.73" height="22.78" fill="#0000ff"/>
<text xml:space="preserve" x="129.46" y="117.07" textLength="8.73" lengthAdjust="spacingAndGlyphs" fill="#ffc706"></text>
<rect x="138.19" y="99.5" width="384.03" height="22.78" fill="#0000ff"/>
<text xml:space="preserve" x="138.19" y="117.07" textLength="384.03" lengthAdjust="spacingAndGlyphs" fill="#010101"> ﴃ Subscription Contoso Production (Global) </text>
<rect x="522.22" y="99.5" width="8.73" height="22.78" fill="#ffc706"/>
<text xml:space="preserve" x="522.22" y="117.07" textLength="8.73" lengthAdjust="spacingAndGlyphs" fill="#0000ff"></text>
<rect x="530.95" y="99.5" width="104.74" height="22.78" fill="#ffc706"/>
<text xml:space="preserve" x="530.95" y="117.07" textLength="104.74" lengthAdjust="spacingAndGlyphs" fill="#010101"> ﴃ 4.0.6280 </text>
<rect x="635.69" y="99.5" width="8.73" height="22.78" fill="#65c2cd"/>
<text xml:space="preserve" x="635.69" y="117.07" textLength="8.73" lengthAdjust="spacingAndGlyphs" fill="#ffc706"></text>
<rect x="644.42" y="99.5" width="69.82" height="22.78" fill="#65c2cd"/>
<text xml:space="preserve" x="644.42" y="117.07" textLength="69.82" lengthAdjust="spacingAndGlyphs" fill="#010101"> 󰟓 1.23.</text>
<rect x="16" y="126.55" width="17.46" height="22.78" fill="#65c2cd"/>
<text xml:space="preserve" x="16" y="144.12" textLength="17.46" lengthAdjust="spacingAndGlyphs" fill="#010101">4 </text>
<rect x="33.46" y="126.55" width="8.73" height="22.78" fill="#65c2cd"/>
<text xml:space="preserve" x="33.46" y="144.12" textLength="8.73" lengthAdjust="spacingAndGlyphs" fill="#65c2cd"></text>
<rect x="42.18" y="126.55" width="87.28" height="22.78" fill="#65c2cd"/>
<text xml:space="preserve" x="42.18" y="144.12" textLength="87.28" lengthAdjust="spacingAndGlyphs" fill="#010101">  21.0.5 </text>
<rect x="129.46" y="126.55" width="8.73" height="22.78" fill="#65c2cd"/>
<text xml:space="preserve" x="129.46" y="144.12" textLength="8.73" lengthAdjust="spacingAndGlyphs" fill="#65c2cd"></text>
<rect x="138.19" y="126.55" width="87.28" height="22.78" fill="#65c2cd"/>
<text xml:space="preserve" x="138.19" y="144.12" textLength="87.28" lengthAdjust="spacingAndGlyphs" fill="#010101">  1.11.2 </text>
<rect x="225.47" y="126.55" width="8.73" height="22.78" fill="#ffff00"/>
<text xml:space="preserve" x="225.47" y="144.12" textLength="8.73" lengthAdjust="spacingAndGlyphs" fill="#65c2cd"></text>
<rect x="234.2" y="126.55" width="130.92" height="22.78" fill="#ffff00"/>
<text xml:space="preserve" x="234.2" y="144.12" textLength="130.92" lengthAdjust="spacingAndGlyphs" fill="#010101"> 󰠳 kind-cymbal </text>
<rect x="365.12" y="126.55" width="8.73" height="22.78" fill="#00ff00"/>
<text xml:space="preserve" x="365.12" y="144.12" textLength="8.73" lengthAdjust="spacingAndGlyphs" fill="#ffff00"></text>
<rect x="373.85" y="126.55" width="96.01" height="22.78" fill="#00ff00"/>
<text xml:space="preserve" x="373.85" y="144.12" textLength="96.01" lengthAdjust="spacingAndGlyphs" fill="#010101"> 󰎙 24.12.0 </text>
<rect x="469.86" y="126.55" width="8.73" height="22.78" fill="#65c2cd"/>
<text xml:space="preserve" x="469.86" y="144.12" textLength="8.73" lengthAdjust="spacingAndGlyphs" fill="#00ff00"></text>
<rect x="478.58" y="126.55" width="78.55" height="22.78" fill="#65c2cd"/>
<text xml:space="preserve" x="478.58" y="144.12" textLength="78.55" lengthAdjust="spacingAndGlyphs" fill="#010101">  8.4.1 </text>
<rect x="557.14" y="126.55" width="8.73" height="22.78" fill="#ffff00"/>
<text xml:space="preserve" x="557.14" y="144.12" textLength="8.73" lengthAdjust="spacingAndGlyphs" fill="#65c2cd"></text>
<rect x="565.86" y="126.55" width="148.38" height="22.78" fill="#ffff00"/>
<text xml:space="preserve" x="565.86" y="144.12" textLength="148.38" lengthAdjust="spacingAndGlyphs" fill="#010101">  1.4.2 oh-my-po</text>
<rect x="16" y="153.6" width="26.18" height="22.78" fill="#ffff00"/>
<text xml:space="preserve" x="16" y="171.18" textLength="26.18" lengthAdjust="spacingAndGlyphs" fill="#010101">sh </text>
<rect x="42.18" y="153.6" width="8.73" height="22.78" fill="#ffff00"/>
<text xml:space="preserve" x="42.18" y="171.18" textLength="8.73" lengthAdjust="spacingAndGlyphs" fill="#ffff00"></text>
<rect x="50.91" y="153.6" width="87.28" height="22.78" fill="#ffff00"/>
<text xml:space="preserve" x="50.91" y="171.18" textLength="87.28" lengthAdjust="spacingAndGlyphs" fill="#010101">  3.12.4 </text>
<rect x="138.19" y="153.6" width="8.73" height="22.78" fill="#de382b"/>
<text xml:space="preserve" x="138.19" y="171.18" textLength="8.73" lengthAdjust="spacingAndGlyphs" fill="#ffff00"></text>
<rect x="146.92" y="153.6" width="78.55" height="22.78" fill="#de382b"/>
<text xml:space="preserve" x="146.92" y="171.18" textLength="78.55" lengthAdjust="spacingAndGlyphs" fill="#010101">  3.3.6 </text>
<rect x="225.47" y="153.6" width="8.73" height="22.78" fill="#ff0000"/>
<text xml:space="preserve" x="225.47" y="171.18" textLength="8.73" lengthAdjust="spacingAndGlyphs" fill="#de382b"></text>
<rect x="234.2" y="153.6" width="87.28" height="22.78" fill="#ff0000"/>
<text xml:space="preserve" x="234.2" y="171.18" textLength="87.28" lengthAdjust="spacingAndGlyphs" fill="#010101">  1.83.0 </text>
<rect x="321.48" y="153.6" width="8.73" height="22.78" fill="#006fb8"/>
<text xml:space="preserve" x="321.48" y="171.18" textLength="8.73" lengthAdjust="spacingAndGlyphs" fill="#ff0000"></text>
<rect x="330.21" y="153.6" width="78.55" height="22.78" fill="#006fb8"/>
<text xml:space="preserve" x="330.21" y="171.18" textLength="78.55" lengthAdjust="spacingAndGlyphs" fill="#010101">  6.0.3 </text>
<rect x="408.76" y="153.6" width="8.73" height="22.78" fill="#2cb5e9"/>
<text xml:space="preserve" x="408.76" y="171.18" textLength="8.73" lengthAdjust="spacingAndGlyphs" fill="#006fb8"></text>
<rect x="417.49" y="153.6" width="61.1" height="22.78" fill="#2cb5e9"/>
<text xml:space="preserve" x="417.49" y="171.18" textLength="61.1" lengthAdjust="spacingAndGlyphs" fill="#010101"> 734ms </text>
<text xml:space="preserve" x="478.58" y="171.18" textLength="8.73" lengthAdjust="spacingAndGlyphs" fill="#2cb5e9"></text>
<text xml:space="preserve" x="487.31" y="171.18" textLength="8.73" lengthAdjust="spacingAndGlyphs" fill="#762671"></text>
<rect x="496.04" y="153.6" width="209.47" height="22.78" fill="#762671"/>
<text xml:space="preserve" x="496.04" y="171.18" textLength="209.47" lengthAdjust="spacingAndGlyphs" fill="#010101">main ↑1  +2 ~1 |  +1</text>
<text xml:space="preserve" x="705.51" y="171.18" textLength="8.73" lengthAdjust="spacingAndGlyphs" fill="#762671"></text>
<text xml:space="preserve" x="16" y="198.23" textLength="17.46" lengthAdjust="spacingAndGlyphs" fill="#2cb5e9"> ╚</text>
<text xml:space="preserve" x="33.46" y="198.23" textLength="8.73" lengthAdjust="spacingAndGlyphs" fill="#006fb8"></text>
<rect x="42.18" y="180.66" width="26.18" height="22.78" fill="#006fb8"/>
<text xml:space="preserve" x="42.18" y="198.23" textLength="26.18" lengthAdjust="spacingAndGlyphs" fill="#010101">  </text>
<rect x="68.37" y="180.66" width="8.73" height="22.78" fill="#006fb8"/>
<text xml:space="preserve" x="68.37" y="198.23" textLength="8.73" lengthAdjust="spacingAndGlyphs" fill="#006fb8"></text>
<rect x="77.1" y="180.66" width="165.83" height="22.78" fill="#006fb8"/>
<text xml:space="preserve" x="77.1" y="198.23" textLength="165.83" lengthAdjust="spacingAndGlyphs" fill="#010101"> ~/dev/oh-my-posh </text>
<rect x="242.93" y="180.66" width="8.73" height="22.78" fill="#006fb8"/>
<text xml:space="preserve" x="242.93" y="198.23" textLength="8.73" lengthAdjust="spacingAndGlyphs" fill="#006fb8"></text>
<rect x="251.66" y="180.66" width="8.73" height="22.78" fill="#006fb8"/>
<text xml:space="preserve" x="251.66" y="198.23" textLength="8.73" lengthAdjust="spacingAndGlyphs" fill="#cccccc">⠀</text>
<text xml:space="preserve" x="260.38" y="198.23" textLength="8.73" lengthAdjust="spacingAndGlyphs" fill="#006fb8"></text>
<text xml:space="preserve" x="269.11" y="198.23" textLength="8.73" lengthAdjust="spacingAndGlyphs" fill="#006fb8"> </text>
<text xml:space="preserve" x="277.84" y="198.23" textLength="8.73" lengthAdjust="spacingAndGlyphs" fill="#ffffff">_</text>
<text xml:space="preserve" x="16" y="252.34" textLength="104.74" lengthAdjust="spacingAndGlyphs" fill="#ffffff" font-weight="bold">ohmyposh.dev</text>
</svg>