<svg xmlns="http://www.w3.org/2000/svg" width="730.24" height="166.88" viewBox="0 0 730.24 166.88" font-family="Victor Mono" font-size="16px"><style>@font-face{font-family:"Victor Mono";src:url("/studio/VictorMono.ttf") format("truetype");}</style>
<path class="omp-window-header" fill="#343434" d="M 4,0 H 726.24 A 4,4 0 0 1 730.24,4 V 26.67 H 0 V 4 A 4,4 0 0 1 4,0 Z"/>
<path class="omp-window-content" fill="#1e1e1e" d="M 0,26.67 H 730.24 V 162.88 A 4,4 0 0 1 726.24,166.88 H 4 A 4,4 0 0 1 0,162.88 Z"/>
<rect class="omp-window" x="0.5" y="0.5" width="729.24" height="165.88" rx="4" fill="none" stroke="#404040" stroke-width="1"/>
<text xml:space="preserve" class="omp-window-control" x="652.91" y="18.47" font-size="14.67px" fill="#cfcfcf" text-anchor="middle">−</text>
<text xml:space="preserve" class="omp-window-control" x="683.57" y="18.47" font-size="14.67px" fill="#cfcfcf" text-anchor="middle">▢</text>
<text xml:space="preserve" class="omp-window-control" x="714.24" y="18.47" font-size="14.67px" fill="#cfcfcf" text-anchor="middle">×</text>
<text xml:space="preserve" x="16" y="62.96" textLength="8.73" lengthAdjust="spacingAndGlyphs" fill="#3a86ff"></text>
<rect x="24.73" y="45.39" width="26.18" height="22.78" fill="#3a86ff"/>
<text xml:space="preserve" x="24.73" y="62.96" textLength="26.18" lengthAdjust="spacingAndGlyphs" fill="#ffffff">  </text>
<rect x="50.91" y="45.39" width="192.02" height="22.78" fill="#3a86ff"/>
<text xml:space="preserve" x="50.91" y="62.96" textLength="192.02" lengthAdjust="spacingAndGlyphs" fill="#ffffff"> alice@contoso-devbox </text>
<rect x="242.93" y="45.39" width="8.73" height="22.78" fill="#ff479c"/>
<text xml:space="preserve" x="242.93" y="62.96" textLength="8.73" lengthAdjust="spacingAndGlyphs" fill="#3a86ff"></text>
<rect x="251.66" y="45.39" width="174.56" height="22.78" fill="#ff479c"/>
<text xml:space="preserve" x="251.66" y="62.96" textLength="174.56" lengthAdjust="spacingAndGlyphs" fill="#ffffff">  ~/dev/oh-my-posh </text>
<rect x="426.22" y="45.39" width="8.73" height="22.78" fill="#fffb38"/>
<text xml:space="preserve" x="426.22" y="62.96" textLength="8.73" lengthAdjust="spacingAndGlyphs" fill="#ff479c"></text>
<rect x="434.94" y="45.39" width="69.82" height="22.78" fill="#fffb38"/>
<text xml:space="preserve" x="434.94" y="62.96" textLength="69.82" lengthAdjust="spacingAndGlyphs" fill="#193549"> main </text>
<rect x="504.77" y="45.39" width="8.73" height="22.78" fill="#6ca35e"/>
<text xml:space="preserve" x="504.77" y="62.96" textLength="8.73" lengthAdjust="spacingAndGlyphs" fill="#fffb38"></text>
<rect x="513.5" y="45.39" width="96.01" height="22.78" fill="#6ca35e"/>
<text xml:space="preserve" x="513.5" y="62.96" textLength="96.01" lengthAdjust="spacingAndGlyphs" fill="#ffffff">  24.12.0 </text>
<rect x="609.5" y="45.39" width="8.73" height="22.78" fill="#ffff66"/>
<text xml:space="preserve" x="609.5" y="62.96" textLength="8.73" lengthAdjust="spacingAndGlyphs" fill="#6ca35e"></text>
<rect x="618.23" y="45.39" width="26.18" height="22.78" fill="#ffff66"/>
<text xml:space="preserve" x="618.23" y="62.96" textLength="26.18" lengthAdjust="spacingAndGlyphs" fill="#193549">  </text>
<text xml:space="preserve" x="644.42" y="62.96" textLength="8.73" lengthAdjust="spacingAndGlyphs" fill="#ffff66"></text>
<rect x="653.14" y="45.39" width="8.73" height="22.78" fill="#2e9599"/>
<text xml:space="preserve" x="653.14" y="62.96" textLength="8.73" lengthAdjust="spacingAndGlyphs" fill="#1e1e1e"></text>
<rect x="661.87" y="45.39" width="26.18" height="22.78" fill="#2e9599"/>
<text xml:space="preserve" x="661.87" y="62.96" textLength="26.18" lengthAdjust="spacingAndGlyphs" fill="#ffffff">  </text>
<text xml:space="preserve" x="688.06" y="62.96" textLength="8.73" lengthAdjust="spacingAndGlyphs" fill="#2e9599"></text>
<text xml:space="preserve" x="16" y="90.01" textLength="17.46" lengthAdjust="spacingAndGlyphs" fill="#f1184c"> </text>
<text xml:space="preserve" x="33.46" y="90.01" textLength="8.73" lengthAdjust="spacingAndGlyphs" fill="#f1184c"> </text>
<text xml:space="preserve" x="42.18" y="90.01" textLength="8.73" lengthAdjust="spacingAndGlyphs" fill="#ffffff">_</text>
<text xml:space="preserve" x="16" y="144.12" textLength="104.74" lengthAdjust="spacingAndGlyphs" fill="#ffffff" font-weight="bold">ohmyposh.dev</text>
</svg>