<svg xmlns="http://www.w3.org/2000/svg" width="730.24" height="139.83" viewBox="0 0 730.24 139.83" font-family="Victor Mono" font-size="16px">
<path class="omp-window-header" fill="#343434" d="M 4,0 H 726.24 A 4,4 0 0 1 730.24,4 V 26.67 H 0 V 4 A 4,4 0 0 1 4,0 Z"/>
<path class="omp-window-content" fill="#1e1e1e" d="M 0,26.67 H 730.24 V 135.83 A 4,4 0 0 1 726.24,139.83 H 4 A 4,4 0 0 1 0,135.83 Z"/>
<rect class="omp-window" x="0.5" y="0.5" width="729.24" height="138.83" rx="4" fill="none" stroke="#404040" stroke-width="1"/>
<text xml:space="preserve" class="omp-window-control" x="652.91" y="18.47" font-size="14.67px" fill="#cfcfcf" text-anchor="middle">−</text>
<text xml:space="preserve" class="omp-window-control" x="683.57" y="18.47" font-size="14.67px" fill="#cfcfcf" text-anchor="middle">▢</text>
<text xml:space="preserve" class="omp-window-control" x="714.24" y="18.47" font-size="14.67px" fill="#cfcfcf" text-anchor="middle">×</text>
<text xml:space="preserve" x="16" y="62.96" textLength="52.37" lengthAdjust="spacingAndGlyphs" fill="#7e46b6">alice </text>
<text xml:space="preserve" x="68.37" y="62.96" textLength="26.18" lengthAdjust="spacingAndGlyphs" fill="#ffffff">in </text>
<text xml:space="preserve" x="94.55" y="62.96" textLength="148.38" lengthAdjust="spacingAndGlyphs" fill="#87ff00">~/dev/oh-my-posh </text>
<text xml:space="preserve" x="242.93" y="62.96" textLength="17.46" lengthAdjust="spacingAndGlyphs" fill="#ffffff">on</text>
<text xml:space="preserve" x="260.38" y="62.96" textLength="52.37" lengthAdjust="spacingAndGlyphs" fill="#5fd7ff"> main</text>
<text xml:space="preserve" x="312.75" y="62.96" textLength="43.64" lengthAdjust="spacingAndGlyphs" fill="#87ff00"> ● +1</text>
<text xml:space="preserve" x="356.39" y="62.96" textLength="69.82" lengthAdjust="spacingAndGlyphs" fill="#d75f00"> ● +2 ~1</text>
<text xml:space="preserve" x="426.22" y="62.96" textLength="8.73" lengthAdjust="spacingAndGlyphs" fill="#5fd7ff"> </text>
<text xml:space="preserve" x="434.94" y="62.96" textLength="17.46" lengthAdjust="spacingAndGlyphs" fill="#d75f00">λ </text>
<text xml:space="preserve" x="452.4" y="62.96" textLength="8.73" lengthAdjust="spacingAndGlyphs" fill="#ffffff">_</text>
<text xml:space="preserve" x="16" y="117.07" textLength="104.74" lengthAdjust="spacingAndGlyphs" fill="#ffffff" font-weight="bold">ohmyposh.dev</text>
</svg>