<svg xmlns="http://www.w3.org/2000/svg" width="730.24" height="193.94" viewBox="0 0 730.24 193.94" font-family="Victor Mono" font-size="16px"><style>@font-face{font-family:"Victor Mono";src:url("/studio/VictorMono.ttf") format("truetype");}</style>
<path class="omp-window-header" fill="#343434" d="M 4,0 H 726.24 A 4,4 0 0 1 730.24,4 V 26.67 H 0 V 4 A 4,4 0 0 1 4,0 Z"/>
<path class="omp-window-content" fill="#1e1e1e" d="M 0,26.67 H 730.24 V 189.94 A 4,4 0 0 1 726.24,193.94 H 4 A 4,4 0 0 1 0,189.94 Z"/>
<rect class="omp-window" x="0.5" y="0.5" width="729.24" height="192.94" rx="4" fill="none" stroke="#404040" stroke-width="1"/>
<text xml:space="preserve" class="omp-window-control" x="652.91" y="18.47" font-size="14.67px" fill="#cfcfcf" text-anchor="middle">−</text>
<text xml:space="preserve" class="omp-window-control" x="683.57" y="18.47" font-size="14.67px" fill="#cfcfcf" text-anchor="middle">▢</text>
<text xml:space="preserve" class="omp-window-control" x="714.24" y="18.47" font-size="14.67px" fill="#cfcfcf" text-anchor="middle">×</text>
<rect x="16" y="45.39" width="130.92" height="22.78" fill="#ffea00"/>
<text xml:space="preserve" x="16" y="62.96" textLength="130.92" lengthAdjust="spacingAndGlyphs" fill="#000000"> 󱃾 kind-cymbal </text>
<rect x="146.92" y="45.39" width="8.73" height="22.78" fill="#008ad7"/>
<text xml:space="preserve" x="146.92" y="62.96" textLength="8.73" lengthAdjust="spacingAndGlyphs" fill="#ffea00"></text>
<rect x="155.65" y="45.39" width="261.84" height="22.78" fill="#008ad7"/>
<text xml:space="preserve" x="155.65" y="62.96" textLength="261.84" lengthAdjust="spacingAndGlyphs" fill="#000000">  Contoso Production [ CLI ] </text>
<rect x="417.49" y="45.39" width="8.73" height="22.78" fill="#012456"/>
<text xml:space="preserve" x="417.49" y="62.96" textLength="8.73" lengthAdjust="spacingAndGlyphs" fill="#008ad7"></text>
<rect x="426.22" y="45.39" width="261.84" height="22.78" fill="#012456"/>
<text xml:space="preserve" x="426.22" y="62.96" textLength="261.84" lengthAdjust="spacingAndGlyphs" fill="#ffffff">  Contoso Production [ CLI ] </text>
<rect x="688.06" y="45.39" width="8.73" height="22.78" fill="#ffa400"/>
<text xml:space="preserve" x="688.06" y="62.96" textLength="8.73" lengthAdjust="spacingAndGlyphs" fill="#012456"></text>
<rect x="696.78" y="45.39" width="17.46" height="22.78" fill="#ffa400"/>
<text xml:space="preserve" x="696.78" y="62.96" textLength="17.46" lengthAdjust="spacingAndGlyphs" fill="#000000"> 󰸏</text>
<rect x="16" y="72.44" width="226.93" height="22.78" fill="#ffa400"/>
<text xml:space="preserve" x="16" y="90.01" textLength="226.93" lengthAdjust="spacingAndGlyphs" fill="#000000"> anycompany-prod@us-east-1</text>
<text xml:space="preserve" x="242.93" y="90.01" textLength="8.73" lengthAdjust="spacingAndGlyphs" fill="#ffa400"></text>
<text xml:space="preserve" x="16" y="117.07" textLength="17.46" lengthAdjust="spacingAndGlyphs" fill="#2f2f2f">▓</text>
<rect x="33.46" y="99.5" width="17.46" height="22.78" fill="#2f2f2f"/>
<text xml:space="preserve" x="33.46" y="117.07" textLength="17.46" lengthAdjust="spacingAndGlyphs" fill="#26c6da">  </text>
<rect x="50.91" y="99.5" width="8.73" height="22.78" fill="#2f2f2f"/>
<text xml:space="preserve" x="50.91" y="117.07" textLength="8.73" lengthAdjust="spacingAndGlyphs" fill="#ffea00"></text>
<rect x="59.64" y="99.5" width="52.37" height="22.78" fill="#2f2f2f"/>
<text xml:space="preserve" x="59.64" y="117.07" textLength="52.37" lengthAdjust="spacingAndGlyphs" fill="#ffea00"> alice</text>
<rect x="112.01" y="99.5" width="17.46" height="22.78" fill="#2f2f2f"/>
<text xml:space="preserve" x="112.01" y="117.07" textLength="17.46" lengthAdjust="spacingAndGlyphs" fill="#ffea00"> </text>
<rect x="129.46" y="99.5" width="17.46" height="22.78" fill="#2f2f2f"/>
<text xml:space="preserve" x="129.46" y="117.07" textLength="17.46" lengthAdjust="spacingAndGlyphs" fill="#ffea00"> </text>
<rect x="146.92" y="99.5" width="17.46" height="22.78" fill="#2f2f2f"/>
<text xml:space="preserve" x="146.92" y="117.07" textLength="17.46" lengthAdjust="spacingAndGlyphs" fill="#ffea00"> </text>
<rect x="164.38" y="99.5" width="26.18" height="22.78" fill="#2f2f2f"/>
<text xml:space="preserve" x="164.38" y="117.07" textLength="26.18" lengthAdjust="spacingAndGlyphs" fill="#f2f200">  </text>
<rect x="190.56" y="99.5" width="148.38" height="22.78" fill="#2f2f2f"/>
<text xml:space="preserve" x="190.56" y="117.07" textLength="148.38" lengthAdjust="spacingAndGlyphs" fill="#fafafa">~/dev/oh-my-posh </text>
<rect x="338.94" y="99.5" width="17.46" height="22.78" fill="#2f2f2f"/>
<text xml:space="preserve" x="338.94" y="117.07" textLength="17.46" lengthAdjust="spacingAndGlyphs" fill="#ffea00"> </text>
<rect x="356.39" y="99.5" width="69.82" height="22.78" fill="#2f2f2f"/>
<text xml:space="preserve" x="356.39" y="117.07" textLength="69.82" lengthAdjust="spacingAndGlyphs" fill="#ffea00">main↑1</text>
<rect x="426.22" y="99.5" width="69.82" height="22.78" fill="#2f2f2f"/>
<text xml:space="preserve" x="426.22" y="117.07" textLength="69.82" lengthAdjust="spacingAndGlyphs" fill="#e84855">  +2 ~1</text>
<rect x="496.04" y="99.5" width="17.46" height="22.78" fill="#2f2f2f"/>
<text xml:space="preserve" x="496.04" y="117.07" textLength="17.46" lengthAdjust="spacingAndGlyphs" fill="#ffea00"> |</text>
<rect x="513.5" y="99.5" width="43.64" height="22.78" fill="#2f2f2f"/>
<text xml:space="preserve" x="513.5" y="117.07" textLength="43.64" lengthAdjust="spacingAndGlyphs" fill="#2fda4e">  +1</text>
<rect x="557.14" y="99.5" width="8.73" height="22.78" fill="#2f2f2f"/>
<text xml:space="preserve" x="557.14" y="117.07" textLength="8.73" lengthAdjust="spacingAndGlyphs" fill="#ffea00"> </text>
<text xml:space="preserve" x="565.86" y="117.07" textLength="26.18" lengthAdjust="spacingAndGlyphs" fill="#ffea00"> ❯ </text>
<text xml:space="preserve" x="592.05" y="117.07" textLength="8.73" lengthAdjust="spacingAndGlyphs" fill="#ffea00"> </text>
<text xml:space="preserve" x="600.78" y="117.07" textLength="8.73" lengthAdjust="spacingAndGlyphs" fill="#ffffff">_</text>
<text xml:space="preserve" x="16" y="171.18" textLength="104.74" lengthAdjust="spacingAndGlyphs" fill="#ffffff" font-weight="bold">ohmyposh.dev</text>
</svg>