<svg xmlns="http://www.w3.org/2000/svg" width="730.24" height="166.88" viewBox="0 0 730.24 166.88" font-family="Victor Mono" font-size="16px">
<path class="omp-window-header" fill="#343434" d="M 4,0 H 726.24 A 4,4 0 0 1 730.24,4 V 26.67 H 0 V 4 A 4,4 0 0 1 4,0 Z"/>
<path class="omp-window-content" fill="#1e1e1e" d="M 0,26.67 H 730.24 V 162.88 A 4,4 0 0 1 726.24,166.88 H 4 A 4,4 0 0 1 0,162.88 Z"/>
<rect class="omp-window" x="0.5" y="0.5" width="729.24" height="165.88" rx="4" fill="none" stroke="#404040" stroke-width="1"/>
<text xml:space="preserve" class="omp-window-control" x="652.91" y="18.47" font-size="14.67px" fill="#cfcfcf" text-anchor="middle">−</text>
<text xml:space="preserve" class="omp-window-control" x="683.57" y="18.47" font-size="14.67px" fill="#cfcfcf" text-anchor="middle">▢</text>
<text xml:space="preserve" class="omp-window-control" x="714.24" y="18.47" font-size="14.67px" fill="#cfcfcf" text-anchor="middle">×</text>
<text xml:space="preserve" x="16" y="62.96" textLength="43.64" lengthAdjust="spacingAndGlyphs" fill="#e06c75">root </text>
<text xml:space="preserve" x="59.64" y="62.96" textLength="17.46" lengthAdjust="spacingAndGlyphs" fill="#ffffff">in</text>
<text xml:space="preserve" x="77.1" y="62.96" textLength="8.73" lengthAdjust="spacingAndGlyphs" fill="#e06c75"> </text>
<text xml:space="preserve" x="85.82" y="62.96" textLength="148.38" lengthAdjust="spacingAndGlyphs" fill="#55b9c4">~/dev/oh-my-posh </text>
<text xml:space="preserve" x="234.2" y="62.96" textLength="17.46" lengthAdjust="spacingAndGlyphs" fill="#ffffff">on</text>
<text xml:space="preserve" x="251.66" y="62.96" textLength="218.2" lengthAdjust="spacingAndGlyphs" fill="#c678dd"> main ↑1  +2 ~1 |  +1 </text>
<text xml:space="preserve" x="469.86" y="62.96" textLength="26.18" lengthAdjust="spacingAndGlyphs" fill="#ffffff">via</text>
<text xml:space="preserve" x="496.04" y="62.96" textLength="96.01" lengthAdjust="spacingAndGlyphs" fill="#98c379">  24.12.0 </text>
<text xml:space="preserve" x="592.05" y="62.96" textLength="17.46" lengthAdjust="spacingAndGlyphs" fill="#c94a16">x </text>
<text xml:space="preserve" x="16" y="90.01" textLength="17.46" lengthAdjust="spacingAndGlyphs" fill="#63f08c">➜ </text>
<text xml:space="preserve" x="33.46" y="90.01" textLength="8.73" lengthAdjust="spacingAndGlyphs" fill="#ffffff">_</text>
<text xml:space="preserve" x="16" y="144.12" textLength="104.74" lengthAdjust="spacingAndGlyphs" fill="#ffffff" font-weight="bold">ohmyposh.dev</text>
</svg>