<svg xmlns="http://www.w3.org/2000/svg" width="730.24" height="193.94" viewBox="0 0 730.24 193.94" font-family="Victor Mono" font-size="16px"><style>@font-face{font-family:"Victor Mono";src:url("/studio/VictorMono.ttf") format("truetype");}</style>
<path class="omp-window-header" fill="#343434" d="M 4,0 H 726.24 A 4,4 0 0 1 730.24,4 V 26.67 H 0 V 4 A 4,4 0 0 1 4,0 Z"/>
<path class="omp-window-content" fill="#1e1e1e" d="M 0,26.67 H 730.24 V 189.94 A 4,4 0 0 1 726.24,193.94 H 4 A 4,4 0 0 1 0,189.94 Z"/>
<rect class="omp-window" x="0.5" y="0.5" width="729.24" height="192.94" rx="4" fill="none" stroke="#404040" stroke-width="1"/>
<text xml:space="preserve" class="omp-window-control" x="652.91" y="18.47" font-size="14.67px" fill="#cfcfcf" text-anchor="middle">−</text>
<text xml:space="preserve" class="omp-window-control" x="683.57" y="18.47" font-size="14.67px" fill="#cfcfcf" text-anchor="middle">▢</text>
<text xml:space="preserve" class="omp-window-control" x="714.24" y="18.47" font-size="14.67px" fill="#cfcfcf" text-anchor="middle">×</text>
<text xml:space="preserve" x="16" y="90.01" textLength="26.18" lengthAdjust="spacingAndGlyphs" fill="#ff70a6">  </text>
<text xml:space="preserve" x="42.18" y="90.01" textLength="52.37" lengthAdjust="spacingAndGlyphs" fill="#ffbebc">alice </text>
<text xml:space="preserve" x="94.55" y="90.01" textLength="17.46" lengthAdjust="spacingAndGlyphs" fill="#ffffff">on</text>
<text xml:space="preserve" x="112.01" y="90.01" textLength="43.64" lengthAdjust="spacingAndGlyphs" fill="#70e2ff">  2 </text>
<text xml:space="preserve" x="155.65" y="90.01" textLength="226.93" lengthAdjust="spacingAndGlyphs" fill="#ee79d1"> main ↑1  +2 ~1 |  +1 </text>
<text xml:space="preserve" x="382.58" y="90.01" textLength="209.47" lengthAdjust="spacingAndGlyphs" fill="#ee79d1">                        </text>
<text xml:space="preserve" x="592.05" y="90.01" textLength="26.18" lengthAdjust="spacingAndGlyphs" fill="#cccccc">  </text>
<text xml:space="preserve" x="618.23" y="90.01" textLength="96.01" lengthAdjust="spacingAndGlyphs" fill="#cccccc">    ▰▰▰▱▱ </text>
<text xml:space="preserve" x="16" y="117.07" textLength="26.18" lengthAdjust="spacingAndGlyphs" fill="#00c7fc">  </text>
<text xml:space="preserve" x="42.18" y="117.07" textLength="8.73" lengthAdjust="spacingAndGlyphs" fill="#ffafd2">{</text>
<text xml:space="preserve" x="50.91" y="117.07" textLength="174.56" lengthAdjust="spacingAndGlyphs" fill="#ffafd2">  ~/dev/oh-my-posh </text>
<text xml:space="preserve" x="225.47" y="117.07" textLength="8.73" lengthAdjust="spacingAndGlyphs" fill="#ffafd2">}</text>
<text xml:space="preserve" x="234.2" y="117.07" textLength="26.18" lengthAdjust="spacingAndGlyphs" fill="#a9ffb4">  </text>
<text xml:space="preserve" x="260.38" y="117.07" textLength="8.73" lengthAdjust="spacingAndGlyphs" fill="#ffffff">_</text>
<text xml:space="preserve" x="16" y="171.18" textLength="104.74" lengthAdjust="spacingAndGlyphs" fill="#ffffff" font-weight="bold">ohmyposh.dev</text>
</svg>